<?xml version="1.0"?>
<svg xmlns="http://www.w3.org/2000/svg" id="Layer_3" enable-background="new 0 0 64 64" height="512px" viewBox="0 0 64 64" width="512px" class=""><g><path d="m16 27v-2c0-2.206-1.794-4-4-4s-4 1.794-4 4v2c0 2.206 1.794 4 4 4s4-1.794 4-4zm-2 0c0 1.103-.897 2-2 2s-2-.897-2-2v-2c0-1.103.897-2 2-2s2 .897 2 2z" data-original="#000000" class="active-path" data-old_color="#000000" fill="#FF6347"/><path d="m58 31h-6-6c-.338 0-.672.045-1 .112v-9.112c0-.552-.448-1-1-1h-4c-.552 0-1 .448-1 1v9h-7-7v-9c0-.552-.448-1-1-1h-4c-.552 0-1 .448-1 1v9.112c-.328-.067-.662-.112-1-.112h-6-6c-2.757 0-5 2.243-5 5v6c0 2.414 1.721 4.434 4 4.899v10.285c-1.161.414-2 1.514-2 2.816v2c0 .552.448 1 1 1h6c.552 0 1-.448 1-1v-4-9h2v9 4c0 .552.448 1 1 1h6c.552 0 1-.448 1-1v-2c0-1.302-.839-2.402-2-2.816v-10.285c2.279-.465 4-2.484 4-4.899v-5.101c.323.066.658.101 1 .101h1v20.184c-1.161.414-2 1.514-2 2.816v2c0 .552.448 1 1 1h6c.552 0 1-.448 1-1v-4-9h2v9 4c0 .552.448 1 1 1h6c.552 0 1-.448 1-1v-2c0-1.302-.839-2.402-2-2.816v-20.184h1c.342 0 .677-.035 1-.101v5.101c0 2.414 1.721 4.434 4 4.899v10.285c-1.161.414-2 1.514-2 2.816v2c0 .552.448 1 1 1h6c.552 0 1-.448 1-1v-4-9h2v9 4c0 .552.448 1 1 1h6c.552 0 1-.448 1-1v-2c0-1.302-.839-2.402-2-2.816v-10.285c2.279-.465 4-2.484 4-4.899v-6c0-2.757-2.243-5-5-5zm-54.816 12h1.816v1.816c-.847-.302-1.514-.969-1.816-1.816zm5.816 18h-4v-1c0-.551.449-1 1-1h3zm1-14c-.552 0-1 .448-1 1v9h-2v-12h10v12h-2v-9c0-.552-.448-1-1-1zm9 14h-4v-2h3c.551 0 1 .449 1 1zm0-16.184v-1.816h1.816c-.302.847-.969 1.514-1.816 1.816zm2-3.816h-2v-5h-2v7h-10v-7h-2v5h-2v-5c0-1.654 1.346-3 3-3h12c.412 0 .809.108 1.184.27.29 1.095.937 2.039 1.816 2.704zm8 20h-4v-1c0-.551.449-1 1-1h3zm1-14c-.552 0-1 .448-1 1v9h-2v-12h10v12h-2v-9c0-.552-.448-1-1-1zm9 14h-4v-2h3c.551 0 1 .449 1 1zm-1-26c-.552 0-1 .448-1 1v7h-10v-7c0-.552-.448-1-1-1h-2c-1.654 0-3-1.346-3-3v-9h2v9c0 .552.448 1 1 1h16c.552 0 1-.448 1-1v-9h2v9c0 1.654-1.346 3-3 3zm6.816-1.73c.375-.162.772-.27 1.184-.27h12c1.654 0 3 1.346 3 3v5h-2v-5h-2v7h-10v-7h-2v5h-2v-5.026c.879-.665 1.526-1.608 1.816-2.704zm-1.632 9.73h1.816v1.816c-.847-.302-1.514-.969-1.816-1.816zm5.816 18h-4v-1c0-.551.449-1 1-1h3zm1-14c-.552 0-1 .448-1 1v9h-2v-12h10v12h-2v-9c0-.552-.448-1-1-1zm9 14h-4v-2h3c.551 0 1 .449 1 1zm0-16.184v-1.816h1.816c-.302.847-.969 1.514-1.816 1.816z" data-original="#000000" class="active-path" data-old_color="#000000" fill="#FF6347"/><path d="m56 27v-2c0-2.206-1.794-4-4-4s-4 1.794-4 4v2c0 2.206 1.794 4 4 4s4-1.794 4-4zm-2 0c0 1.103-.897 2-2 2s-2-.897-2-2v-2c0-1.103.897-2 2-2s2 .897 2 2z" data-original="#000000" class="active-path" data-old_color="#000000" fill="#FF6347"/><path d="m36 27v-2c0-2.206-1.794-4-4-4s-4 1.794-4 4v2c0 2.206 1.794 4 4 4s4-1.794 4-4zm-2 0c0 1.103-.897 2-2 2s-2-.897-2-2v-2c0-1.103.897-2 2-2s2 .897 2 2z" data-original="#000000" class="active-path" data-old_color="#000000" fill="#FF6347"/><path d="m31 5h2v5h-2z" data-original="#000000" class="active-path" data-old_color="#000000" fill="#FF6347"/><path d="m31 12h2v2h-2z" data-original="#000000" class="active-path" data-old_color="#000000" fill="#FF6347"/><path d="m32.919 20.394 1.637-3.82c3.229-1.088 5.444-4.134 5.444-7.574 0-4.411-3.589-8-8-8s-8 3.589-8 8c0 3.44 2.215 6.486 5.444 7.574l1.637 3.82c.157.368.519.606.919.606s.762-.238.919-.606zm-1.82-5.036c-.121-.281-.363-.492-.659-.572-2.614-.703-4.44-3.082-4.44-5.786 0-3.309 2.691-6 6-6s6 2.691 6 6c0 2.704-1.826 5.083-4.439 5.787-.296.08-.539.291-.659.572l-.902 2.102z" data-original="#000000" class="active-path" data-old_color="#000000" fill="#FF6347"/><path d="m52.919 20.394 1.637-3.82c3.229-1.088 5.444-4.134 5.444-7.574 0-4.411-3.589-8-8-8s-8 3.589-8 8c0 3.44 2.215 6.486 5.444 7.574l1.637 3.82c.157.368.519.606.919.606s.762-.238.919-.606zm-1.82-5.036c-.121-.281-.363-.492-.659-.572-2.614-.703-4.44-3.082-4.44-5.786 0-3.309 2.691-6 6-6s6 2.691 6 6c0 2.704-1.826 5.083-4.439 5.787-.296.08-.539.291-.659.572l-.902 2.102z" data-original="#000000" class="active-path" data-old_color="#000000" fill="#FF6347"/><path d="m52 7c.551 0 1 .449 1 1s-.449 1-1 1c-.552 0-1 .448-1 1v2h2v-1.171c1.164-.413 2-1.525 2-2.829 0-1.654-1.346-3-3-3s-3 1.346-3 3h2c0-.551.449-1 1-1z" data-original="#000000" class="active-path" data-old_color="#000000" fill="#FF6347"/><path d="m51 13h2v2h-2z" data-original="#000000" class="active-path" data-old_color="#000000" fill="#FF6347"/><path d="m12.919 20.394 1.637-3.82c3.229-1.088 5.444-4.134 5.444-7.574 0-4.411-3.589-8-8-8s-8 3.589-8 8c0 3.44 2.215 6.486 5.444 7.574l1.637 3.82c.157.368.519.606.919.606s.762-.238.919-.606zm-1.82-5.036c-.121-.281-.363-.492-.659-.572-2.614-.703-4.44-3.082-4.44-5.786 0-3.309 2.691-6 6-6s6 2.691 6 6c0 2.704-1.826 5.083-4.439 5.787-.296.08-.539.291-.659.572l-.902 2.102z" data-original="#000000" class="active-path" data-old_color="#000000" fill="#FF6347"/><path d="m12 7c.551 0 1 .449 1 1s-.449 1-1 1c-.552 0-1 .448-1 1v2h2v-1.171c1.164-.413 2-1.525 2-2.829 0-1.654-1.346-3-3-3s-3 1.346-3 3h2c0-.551.449-1 1-1z" data-original="#000000" class="active-path" data-old_color="#000000" fill="#FF6347"/><path d="m11 13h2v2h-2z" data-original="#000000" class="active-path" data-old_color="#000000" fill="#FF6347"/></g> </svg>
