<?xml version="1.0"?>
<svg xmlns="http://www.w3.org/2000/svg" xmlns:xlink="http://www.w3.org/1999/xlink" version="1.1" id="Capa_1" x="0px" y="0px" viewBox="0 0 480 480" style="enable-background:new 0 0 480 480;" xml:space="preserve" width="512px" height="512px" class=""><g><g>
	<g>
		<path d="M472,80h-24V32c0-17.673-14.327-32-32-32h-24c-4.418,0-8,3.582-8,8v40h-88.64c-4.391-30.574-32.736-51.8-63.311-47.409    C207.475,4.12,188.169,23.426,184.64,48H40c-4.418,0-8,3.582-8,8v24H8c-4.418,0-8,3.582-8,8v384c0,4.418,3.582,8,8,8h464    c4.418,0,8-3.582,8-8V88C480,83.582,476.418,80,472,80z M400,16h16c8.837,0,16,7.163,16,16v356.296    c-4.859-2.822-10.38-4.305-16-4.296h-16V16z M16,464V96h16v344c0,4.418,3.582,8,8,8h164.688l16,16H16z M232,452.688    l-18.344-18.344c-1.5-1.5-3.534-2.344-5.656-2.344H48V64h136.648c1.7,11.733,7.074,22.625,15.352,31.112V104h-16v16h48V452.688z     M232,83.312V104h-16V91.704c0-2.271-0.966-4.435-2.656-5.952c-16.458-14.697-17.886-39.952-3.189-56.411    c7.59-8.5,18.45-13.354,29.845-13.341c22.065-0.025,39.972,17.842,39.997,39.906c0.013,11.396-4.841,22.255-13.341,29.846    c-1.69,1.517-2.656,3.681-2.656,5.952V104h-16V83.312l21.656-21.656l-11.312-11.312L240,68.688l-18.344-18.344l-11.312,11.312    L232,83.312z M248,120h48v-16h-16v-8.888c8.278-8.487,13.652-19.379,15.352-31.112H384v72H280c-4.418,0-8,3.582-8,8v96    c0,4.418,3.582,8,8,8h104v16h-48v16h48v16H272v16h112v16H272v16h112v16H272v16h112v16c0,4.418,3.582,8,8,8h24    c8.837,0,16,7.163,16,16s-7.163,16-16,16H272c-2.122,0-4.156,0.844-5.656,2.344L248,452.688V120z M381.656,186.344    c-3.124-3.123-8.188-3.123-11.312,0L352,204.688l-26.344-26.344c-3.124-3.123-8.188-3.123-11.312,0L288,204.688V152h96v36.688    L381.656,186.344z M384,211.312V232h-96v-4.688l32-32l26.344,26.344c3.124,3.123,8.188,3.123,11.312,0L376,203.312L384,211.312z     M464,464H259.312l16-16H416c17.673,0,32-14.327,32-32V96h16V464z" data-original="#000000" class="active-path" data-old_color="#000000" fill="#FF6347"/>
	</g>
</g><g>
	<g>
		<path d="M200,136H80c-4.418,0-8,3.582-8,8v96c0,4.418,3.582,8,8,8h120c4.418,0,8-3.582,8-8v-96C208,139.582,204.418,136,200,136z     M192,232H88v-4.688l32-32l26.344,26.344c3.124,3.123,8.188,3.123,11.312,0L176,203.312l16,16V232z M192,196.688l-10.344-10.344    c-3.124-3.123-8.188-3.123-11.312,0L152,204.688l-26.344-26.344c-3.124-3.123-8.188-3.123-11.312,0L88,204.688V152h104V196.688z" data-original="#000000" class="active-path" data-old_color="#000000" fill="#FF6347"/>
	</g>
</g><g>
	<g>
		<rect x="144" y="168" width="16" height="16" data-original="#000000" class="active-path" data-old_color="#000000" fill="#FF6347"/>
	</g>
</g><g>
	<g>
		<rect x="104" y="264" width="16" height="16" data-original="#000000" class="active-path" data-old_color="#000000" fill="#FF6347"/>
	</g>
</g><g>
	<g>
		<rect x="136" y="264" width="72" height="16" data-original="#000000" class="active-path" data-old_color="#000000" fill="#FF6347"/>
	</g>
</g><g>
	<g>
		<rect x="72" y="296" width="136" height="16" data-original="#000000" class="active-path" data-old_color="#000000" fill="#FF6347"/>
	</g>
</g><g>
	<g>
		<rect x="72" y="328" width="136" height="16" data-original="#000000" class="active-path" data-old_color="#000000" fill="#FF6347"/>
	</g>
</g><g>
	<g>
		<rect x="72" y="360" width="136" height="16" data-original="#000000" class="active-path" data-old_color="#000000" fill="#FF6347"/>
	</g>
</g><g>
	<g>
		<rect x="72" y="392" width="104" height="16" data-original="#000000" class="active-path" data-old_color="#000000" fill="#FF6347"/>
	</g>
</g><g>
	<g>
		<rect x="344" y="168" width="16" height="16" data-original="#000000" class="active-path" data-old_color="#000000" fill="#FF6347"/>
	</g>
</g><g>
	<g>
		<rect x="304" y="264" width="16" height="16" data-original="#000000" class="active-path" data-old_color="#000000" fill="#FF6347"/>
	</g>
</g><g>
	<g>
		<rect x="272" y="392" width="96" height="16" data-original="#000000" class="active-path" data-old_color="#000000" fill="#FF6347"/>
	</g>
</g></g> </svg>
